<?xml version="1.0" ?><svg data-name="Layer 1" height="64" id="Layer_1" viewBox="0 0 64 64" width="64" xmlns="http://www.w3.org/2000/svg"><title/><path d="M5,9c2.523,0,3,.212,3,1.333,0,1.145-1.374,2.111-3,2.111a3.485,3.485,0,0,1-2.481-.939A1,1,0,1,0,1.081,12.9,5.207,5.207,0,0,0,4,14.352V15a1,1,0,0,0,2,0v-.639c2.279-.382,4-2.042,4-4.028C10,7,6.87,7,5,7,2.477,7,2,6.788,2,5.667,2,4.522,3.374,3.556,5,3.556A3.485,3.485,0,0,1,7.481,4.5a1,1,0,0,0,1.438-1.39A5.207,5.207,0,0,0,6,1.648V1A1,1,0,0,0,4,1v.639c-2.279.382-4,2.042-4,4.028C0,9,3.13,9,5,9Z"/><path d="M62,63V38a1,1,0,0,0-2,0V63a1,1,0,0,0,2,0Z"/><path d="M49.186,11.581a1,1,0,0,0,.168.181c.026.022.056.037.084.057s.074.053.114.074a.986.986,0,0,0,.149.055c.024.008.047.019.072.025a.907.907,0,0,0,.147.017A.728.728,0,0,0,50,12h.05a1,1,0,0,0,.818-.5l3.569-6.245,8.191,3.278a1,1,0,1,0,.744-1.858L54.659,3.186,52.832.445A1,1,0,0,0,51.606.081L45,2.912,38.394.081a1,1,0,0,0-1.226.364L35.341,3.186,23.815,7.8a8.256,8.256,0,0,0-4.832,5.21c-2.015,6.421-5.252,17.483-5.87,24.017a.986.986,0,0,0-1.083.736,1,1,0,0,0,.73,1.21A.986.986,0,0,0,13,39c0,6.888,2.617,11,7,11,.783,0,2.393-.359,7.273-3.122l.019-.007c.233-.132.469-.268.708-.406V63a1,1,0,0,0,2,0V45.286c2.949-1.77,6.148-3.818,9-5.691V63a1,1,0,0,0,2,0V57.921l8.427,5.9a.785.785,0,0,0,.12.059A.893.893,0,0,0,50,64h0a.97.97,0,0,0,.423-.1.83.83,0,0,0,.1-.067.983.983,0,0,0,.243-.211c.015-.019.039-.026.053-.047s.024-.062.041-.092a.984.984,0,0,0,.08-.185.957.957,0,0,0,.04-.2c0-.034.02-.064.02-.1V30.2a26.228,26.228,0,0,0,3.188-1.349A16.833,16.833,0,0,1,61.724,27h.193a2.083,2.083,0,0,0,.343-4.137l-1.124-.188,1.449-.483a2.068,2.068,0,0,0-.03-3.933A2.116,2.116,0,0,0,60.639,14.5l-1.311.561a1.788,1.788,0,0,0-2.389-2.573l-7.317,4.573a.559.559,0,0,1-.468-.164.684.684,0,0,1-.179-.647,8.284,8.284,0,0,0-.005-3.488.987.987,0,0,0-.075-.2,2.844,2.844,0,0,0-2.221-1.813l1.115-1.115Zm2.443-9.334,1.2,1.794L49.906,9.148,46.536,4.43Zm-13.258,0L43.464,4.43l-3.37,4.718L37.175,4.041ZM15,39c0-5.977,4.12-19.75,5.892-25.394a6.261,6.261,0,0,1,3.666-3.952l11.005-4.4L39.132,11.5a1,1,0,0,0,.818.5H40c.025,0,.049-.007.073-.009a.974.974,0,0,0,.741-.41l1.4-1.956,1.549,1.549L39.8,18.3a6.383,6.383,0,0,0-.8,3.1v2.265L28.244,28.365l.746-5.223a1,1,0,0,0-1.98-.284l-1,7c0,.026.006.049,0,.074a.982.982,0,0,0,.011.2.962.962,0,0,0,.042.193.608.608,0,0,0,.016.074.934.934,0,0,0,.064.091.907.907,0,0,0,.116.165.948.948,0,0,0,.141.128.935.935,0,0,0,.156.1,19.993,19.993,0,0,1,.3.106A1,1,0,0,0,27,31h0c.024,0,.047-.011.07-.013a.975.975,0,0,0,.3-.065c.008,0,.016,0,.024,0L42.455,24.33,45.5,31.943h0l.274.687c-2.4,1.653-10.937,7.479-17.7,11.475l-.607.357c-.256.149-.506.292-.756.436C21.873,47.667,20.412,48,20,48,15.487,48,15,41.706,15,39ZM44.9,13.86c-.007.035-.012.07-.02.1a6.238,6.238,0,0,1-.271.849l-.041.1a8.7,8.7,0,0,1-.429.885l-.066.118c-.167.293-.358.591-.568.894l-.058.084a7.648,7.648,0,0,0-.9,1.72A8.066,8.066,0,0,0,42,21.51v.836l-1,.438v-1.39a4.377,4.377,0,0,1,.551-2.126L45,13.068c0,.019,0,.039,0,.058A4.135,4.135,0,0,1,44.9,13.86ZM41,41.921l8,5.6v5.558l-8-5.6Zm8,3.158-8-5.6v-1.2c1.17-.778,2.247-1.5,3.176-2.131L49,39.521Zm-8,4.842,8,5.6v5.558l-8-5.6ZM49,30.8v6.281L45.944,34.94l.385-.264.05-.034.157-.107c.639-.439,1.015-.7,1.035-.714a.988.988,0,0,0,.353-.465c.009-.024.026-.044.034-.068a1.051,1.051,0,0,0,.035-.274c0-.018.007-.035.006-.053a1,1,0,0,0-.049-.232.829.829,0,0,0-.021-.1h0l-.036-.089-.29-.728.749-.749a.738.738,0,0,1,.362-.192h0c.052-.012.1-.029.157-.042ZM47.025,15.8a2.671,2.671,0,0,0,.73,2.519,2.6,2.6,0,0,0,2.493.647,1.023,1.023,0,0,0,.282-.121l5.887-3.68-2.124,2.125a1,1,0,0,0,1.1,1.626l6.033-2.586a.116.116,0,0,1,.149.055l-.058.159-5.912,2.534a1,1,0,0,0,.536,1.909l5.835-.81-.023.114-5.27,1.757a1,1,0,0,0,.151,1.935l5.1.849a.083.083,0,0,1-.014.165h-.193a18.839,18.839,0,0,0-8.437,2.065,23.439,23.439,0,0,1-3.62,1.473c-.453.14-.918.269-1.418.381a2.873,2.873,0,0,0-1.319.727l-.138.14L44,22.807V21.512a6.139,6.139,0,0,1,.33-1.981,5.618,5.618,0,0,1,.746-1.474c.065-.092.122-.183.184-.275s.115-.168.173-.258c.072-.113.141-.224.208-.336.047-.078.093-.156.14-.236q.114-.2.218-.393l.078-.154c.082-.161.16-.321.231-.479l.033-.078c.081-.186.157-.372.223-.555.009-.025.017-.051.025-.076.066-.187.125-.373.174-.556.013-.048.024-.1.036-.144.04-.164.076-.327.1-.489.013-.071.022-.142.032-.213q.032-.216.045-.429c0-.046.013-.092.015-.139l.056.1A6.355,6.355,0,0,1,47.025,15.8ZM46.61,7.976,45,9.586l-1.61-1.61L45,5.721Z"/><path d="M5.92,18.62a1.155,1.155,0,0,0-.21-.33,1.047,1.047,0,0,0-1.42,0,1.032,1.032,0,0,0-.21.33A1,1,0,0,0,4,19a1.355,1.355,0,0,0,.02.2.636.636,0,0,0,.06.18.757.757,0,0,0,.09.18l.12.15a1.014,1.014,0,0,0,1.42,0,1.576,1.576,0,0,0,.12-.15.757.757,0,0,0,.09-.18.636.636,0,0,0,.06-.18A1.355,1.355,0,0,0,6,19,1,1,0,0,0,5.92,18.62Z"/><circle cx="5" cy="27.5" r="1"/><circle cx="5" cy="31.75" r="1"/><circle cx="5" cy="23.25" r="1"/><path d="M4.29,35.29A1,1,0,0,0,5,37a1.052,1.052,0,0,0,.71-.29,1.032,1.032,0,0,0,.21-.33A1,1,0,0,0,6,36a1.052,1.052,0,0,0-.29-.71A1.047,1.047,0,0,0,4.29,35.29Z"/><path d="M17.24,38.03a1,1,0,0,0-.48,1.94,1,1,0,0,0,1.21-.73A1,1,0,0,0,17.24,38.03Z"/><path d="M8.03,36.76a1,1,0,0,0,.73,1.21,1,1,0,0,0,1.21-.73,1,1,0,0,0-1.94-.48Z"/><path d="M21.71,39.29a1.047,1.047,0,0,0-1.42,0,1.155,1.155,0,0,0-.21.33A1,1,0,0,0,20,40a1,1,0,1,0,2,0,1,1,0,0,0-.08-.38A1.155,1.155,0,0,0,21.71,39.29Z"/></svg>