<?xml version="1.0" ?><svg id="Outline" viewBox="0 0 64 64" xmlns="http://www.w3.org/2000/svg"><path d="M29,40H25a1,1,0,0,0-1,1v6a1,1,0,0,0,1,1h4a1,1,0,0,0,1-1V41A1,1,0,0,0,29,40Zm-1,6H26V42h2Z"/><path d="M39,40H35a1,1,0,0,0-1,1v6a1,1,0,0,0,1,1h4a1,1,0,0,0,1-1V41A1,1,0,0,0,39,40Zm-1,6H36V42h2Z"/><path d="M33,27a1,1,0,0,0-2,0v2a1,1,0,0,0,2,0Z"/><circle cx="55.995" cy="7.995" r="1.005"/><circle cx="53.995" cy="11.995" r="1.005"/><circle cx="57.995" cy="11.995" r="1.005"/><circle cx="55.995" cy="15.995" r="1.005"/><circle cx="53.995" cy="19.995" r="1.005"/><circle cx="57.995" cy="19.995" r="1.005"/><circle cx="55.995" cy="23.995" r="1.005"/><circle cx="53.995" cy="27.995" r="1.005"/><circle cx="57.995" cy="27.995" r="1.005"/><circle cx="55.995" cy="31.995" r="1.005"/><circle cx="53.995" cy="35.995" r="1.005"/><circle cx="57.995" cy="35.995" r="1.005"/><circle cx="55.995" cy="39.995" r="1.005"/><circle cx="53.995" cy="43.995" r="1.005"/><circle cx="57.995" cy="43.995" r="1.005"/><circle cx="7.995" cy="7.995" r="1.005"/><circle cx="5.995" cy="11.995" r="1.005"/><circle cx="9.995" cy="11.995" r="1.005"/><circle cx="7.995" cy="15.995" r="1.005"/><circle cx="5.995" cy="19.995" r="1.005"/><circle cx="9.995" cy="19.995" r="1.005"/><circle cx="7.995" cy="23.995" r="1.005"/><circle cx="5.995" cy="27.995" r="1.005"/><circle cx="9.995" cy="27.995" r="1.005"/><circle cx="7.995" cy="31.995" r="1.005"/><circle cx="5.995" cy="35.995" r="1.005"/><circle cx="9.995" cy="35.995" r="1.005"/><circle cx="7.995" cy="39.995" r="1.005"/><circle cx="5.995" cy="43.995" r="1.005"/><circle cx="9.995" cy="43.995" r="1.005"/><path d="M53,48h6a3,3,0,0,0,3-3V5a3,3,0,0,0-3-3H53a3,3,0,0,0-3,3V23H48V22a1,1,0,0,0-.553-.895L44,19.382V19a3,3,0,0,0-3-3H38.9A5.009,5.009,0,0,0,34,12H30a5.009,5.009,0,0,0-4.9,4H23a3,3,0,0,0-3,3v.382l-3.447,1.723A1,1,0,0,0,16,22v1H14V5a3,3,0,0,0-3-3H5A3,3,0,0,0,2,5V45a3,3,0,0,0,3,3h6a3,3,0,0,0,3-3V27h2v1a1,1,0,0,0,.553.895L20,30.618V31a3,3,0,0,0,3,3h2v2a5.006,5.006,0,0,0-5,5v9H10a3,3,0,0,0-3,3v1H5a3,3,0,0,0-3,3v2a1,1,0,0,0,1,1H4a2,2,0,0,0,4,0H56a2,2,0,0,0,4,0h1a1,1,0,0,0,1-1V57a3,3,0,0,0-3-3H57V53a3,3,0,0,0-3-3H44V41a5.006,5.006,0,0,0-5-5V34h2a3,3,0,0,0,3-3v-.382L47.447,28.9A1,1,0,0,0,48,28V27h2V45A3,3,0,0,0,53,48Zm-1-7a1,1,0,0,0,0-2.008V33a1,1,0,0,0,0-2.008V25a1,1,0,0,0,0-2.008V17a1,1,0,0,0,0-2.008V9a1,1,0,0,0,0-2.008V5a1,1,0,0,1,.992-1A1,1,0,0,0,55,4h1.992A1,1,0,0,0,59,4h0a1,1,0,0,1,1,1V6.991H60A1,1,0,1,0,60,9H60v5.992H60A1,1,0,1,0,60,17H60v5.992H60A1,1,0,1,0,60,25H60v5.992H60A1,1,0,1,0,60,33H60v5.992H60A1,1,0,1,0,60,41H60v4a1,1,0,0,1-1,1H53a1,1,0,0,1-1-1ZM12,6.991H12A1,1,0,1,0,12,9H12v5.992H12A1,1,0,1,0,12,17H12v5.992H12A1.005,1.005,0,0,0,12,25H12v5.992H12A1.005,1.005,0,0,0,12,33H12v5.992H12A1.005,1.005,0,0,0,12,41H12v4a1,1,0,0,1-1,1H5a1,1,0,0,1-1-1V41a1,1,0,0,0,0-2.008V33a1,1,0,0,0,0-2.008V25a1,1,0,0,0,0-2.008V17a1,1,0,0,0,0-2.008V9A1,1,0,0,0,4,6.991V5a1,1,0,0,1,.992-1A1,1,0,0,0,7,4H8.991A1,1,0,0,0,11,4h0a1,1,0,0,1,1,1Zm8,21.391-2-1V22.618l2-1ZM30,14h4a3.006,3.006,0,0,1,2.829,2H27.171A3.006,3.006,0,0,1,30,14Zm2,10a1,1,0,0,0,1-1V18h3V29a3,3,0,0,1-3,3H31a3,3,0,0,1-3-3V18h3v5A1,1,0,0,0,32,24ZM31,34h6v2H27V34Zm-8-2a1,1,0,0,1-1-1V19a1,1,0,0,1,1-1h3V29a4.948,4.948,0,0,0,1.026,3H23ZM59,56a1,1,0,0,1,1,1v1H4V57a1,1,0,0,1,1-1H59ZM43,52H54a1,1,0,0,1,1,1v1H9V53a1,1,0,0,1,1-1H43ZM42,41v9H22V41a3,3,0,0,1,3-3H39A3,3,0,0,1,42,41Zm0-21V31a1,1,0,0,1-1,1H36.974A4.948,4.948,0,0,0,38,29V18h3a1,1,0,0,1,1,1Zm4,4v3.382l-2,1V21.618l2,1Z"/></svg>