<?xml version="1.0" encoding="UTF-8"?><svg xmlns="http://www.w3.org/2000/svg" xmlns:xlink="http://www.w3.org/1999/xlink" version="1.1" id="Layer_1" x="0px" y="0px" viewBox="0 0 24 24" xml:space="preserve"><path d="M12 15.112c-2.757 0-5-2.916-5-6.5s2.243-6.5 5-6.5 5 2.916 5 6.5-2.243 6.5-5 6.5zm0-12c-2.206 0-4 2.467-4 5.5s1.794 5.5 4 5.5 4-2.467 4-5.5-1.794-5.5-4-5.5z"/><path d="M12 24.112c-1.103 0-2-.897-2-2l.434-5.223C7.26 16.015 5 12.616 5 8.612c0-4.687 3.141-8.5 7-8.5s7 3.813 7 8.5c0 4.004-2.26 7.403-5.434 8.277l.432 5.182c.002 1.144-.895 2.041-1.998 2.041zm0-23c-3.309 0-6 3.364-6 7.5 0 3.709 2.13 6.821 5.064 7.399.25.049.423.278.401.532l-.468 5.61c.002.51.45.958 1.002.958s1-.449 1-1l-.466-5.569a.5.5 0 0 1 .401-.532C15.87 15.433 18 12.322 18 8.612c0-4.136-2.691-7.5-6-7.5z"/><path d="M10.5 8.112a.5.5 0 0 1-.354-.853l1-1a.5.5 0 0 1 .707.707l-1 1a.498.498 0 0 1-.353.146z"/><path d="M10.5 12.112a.5.5 0 0 1-.354-.853l4-4a.5.5 0 0 1 .707.707l-4 4a.498.498 0 0 1-.353.146z"/><metadata><rdf:RDF xmlns:rdf="http://www.w3.org/1999/02/22-rdf-syntax-ns#" xmlns:rdfs="http://www.w3.org/2000/01/rdf-schema#" xmlns:dc="http://purl.org/dc/elements/1.1/"><rdf:Description about="https://iconscout.com/legal#licenses" dc:title="mirror" dc:description="mirror" dc:publisher="Iconscout" dc:date="2018-01-03" dc:format="image/svg+xml" dc:language="en"><dc:creator><rdf:Bag><rdf:li>Icon 54</rdf:li></rdf:Bag></dc:creator></rdf:Description></rdf:RDF></metadata></svg>