<?xml version="1.0" ?><svg data-name="Layer 1" id="e2be432e-fbc6-49d0-ad66-f0905f876301" viewBox="0 0 100 100" xmlns="http://www.w3.org/2000/svg"><title/><path d="M67.78064,40.015a5.41193,5.41193,0,1,0-5.40826-5.40832A5.40691,5.40691,0,0,0,67.78064,40.015Z"/><path d="M80.89349,50.93976A4.03022,4.03022,0,1,0,76.866,46.91229,4.02642,4.02642,0,0,0,80.89349,50.93976Z"/><path d="M70.50763,65.8573V57.97009A7.67744,7.67744,0,0,1,76.12646,50.587a5.99045,5.99045,0,0,1-.1195-7.19269A7.55594,7.55594,0,0,0,71.42743,41.842H64.13385a7.63618,7.63618,0,0,0-7.61377,7.61383V60.04681a5.176,5.176,0,0,0,5.16077,5.16083h.00006a.21831.21831,0,0,1,.21832.21826V78.23706a4.6085,4.6085,0,0,0,4.593,4.60028H69.069a4.60855,4.60855,0,0,0,4.59308-4.60028v-7.194A5.84915,5.84915,0,0,1,70.50763,65.8573Z"/><path d="M83.60919,52.30029H78.1778a5.68659,5.68659,0,0,0-5.66993,5.66992v7.887a3.85447,3.85447,0,0,0,3.8432,3.84314h.00007a.16256.16256,0,0,1,.16253.1626V79.4032a3.43191,3.43191,0,0,0,3.42041,3.42572H81.853a3.43185,3.43185,0,0,0,3.42035-3.42572V69.86292a.16261.16261,0,0,1,.16259-.1626,3.85449,3.85449,0,0,0,3.8432-3.8432V57.97021A5.68658,5.68658,0,0,0,83.60919,52.30029Z"/><path d="M54.52026,60.04706V49.45575a9.61979,9.61979,0,0,1,8.15815-9.49146,7.38125,7.38125,0,0,1-2.3061-5.35766c0-.19769.01441-.39185.02967-.58569a9.23036,9.23036,0,0,0-4.83289-1.37281H44.43091A9.23036,9.23036,0,0,0,39.598,34.02094c.01526.19384.02967.388.02967.58569a7.38125,7.38125,0,0,1-2.3061,5.35766,9.61979,9.61979,0,0,1,8.15815,9.49146V60.04706a7.14688,7.14688,0,0,1-3.78418,6.28668V77.19788a5.64116,5.64116,0,0,0,5.62219,5.631h5.3645a5.64116,5.64116,0,0,0,5.62219-5.631V66.33374A7.14688,7.14688,0,0,1,54.52026,60.04706Z"/><path d="M32.21936,40.015A5.41193,5.41193,0,1,0,26.811,34.60669,5.4069,5.4069,0,0,0,32.21936,40.015Z"/><path d="M19.10651,50.93976A4.03022,4.03022,0,1,0,15.079,46.91229,4.02642,4.02642,0,0,0,19.10651,50.93976Z"/><path d="M43.47992,60.04681V49.45587A7.63618,7.63618,0,0,0,35.86615,41.842H28.57257A7.55594,7.55594,0,0,0,23.993,43.39429a5.99045,5.99045,0,0,1-.1195,7.19269,7.67744,7.67744,0,0,1,5.61883,7.38311V65.8573a5.84915,5.84915,0,0,1-3.15448,5.18579v7.194A4.60855,4.60855,0,0,0,30.931,82.83734h2.57678a4.6085,4.6085,0,0,0,4.593-4.60028V65.4259a.21831.21831,0,0,1,.21832-.21826h.00006A5.176,5.176,0,0,0,43.47992,60.04681Z"/><path d="M27.49213,65.85718v-7.887a5.68659,5.68659,0,0,0-5.66993-5.66992H16.39081a5.68658,5.68658,0,0,0-5.66992,5.66992v7.88691a3.85449,3.85449,0,0,0,3.8432,3.8432.16261.16261,0,0,1,.16259.1626V79.4032A3.43185,3.43185,0,0,0,18.147,82.82892h1.91889a3.43191,3.43191,0,0,0,3.42041-3.42572V69.86292a.16256.16256,0,0,1,.16253-.1626h.00007A3.85447,3.85447,0,0,0,27.49213,65.85718Z"/><path d="M50,30.41174a6.62454,6.62454,0,1,0-6.62006-6.62011A6.61835,6.61835,0,0,0,50,30.41174Z"/></svg>