<?xml version="1.0" ?><svg viewBox="0 0 64 64" xmlns="http://www.w3.org/2000/svg"><title/><g data-name="outline create" id="outline_create"><path d="M54,17.1V17H49c-3.355,0-6.218,3.213-7.767,8.078a7.366,7.366,0,0,0-1.914-1.316A7.586,7.586,0,0,0,36,23H28.4a7.619,7.619,0,0,0-4.774,1.672C22.011,19.9,19.176,17,16,17H11c-5.047,0-9,7.248-9,16.5S5.953,50,11,50h5c3.013,0,5.693-2.557,7.357-6.915a7.465,7.465,0,0,0,1.728,1.155,7.612,7.612,0,0,0,1.42.513L23.382,51H21a1,1,0,0,0-1,1v9a1,1,0,0,0,1,1h5a1,1,0,0,0,1-1V58H37v3a1,1,0,0,0,1,1h5a1,1,0,0,0,1-1V52a1,1,0,0,0-1-1H40.618l-3.081-6.162a7.564,7.564,0,0,0,3.946-2.155C43.08,47.122,45.822,50,49,50h5v-.1c4.559-.886,8-7.767,8-16.4S58.559,17.988,54,17.1ZM20.274,38.357A7.664,7.664,0,0,0,18,38c-.944,0-2-1.71-2-4s1.056-4,2-4a7.659,7.659,0,0,0,2.273-.356A12.817,12.817,0,0,0,20.274,38.357ZM4,33.5C4,25.64,7.206,19,11,19h.643C8.854,21.772,7,27.165,7,33.5S8.854,45.228,11.643,48H11C7.206,48,4,41.36,4,33.5ZM16,48c-3.794,0-7-6.64-7-14.5S12.206,19,16,19c2.426,0,4.753,2.82,6.039,7.3a5.392,5.392,0,0,1-1.6,1.143A5.571,5.571,0,0,1,18,28c-2.243,0-4,2.636-4,6s1.757,6,4,6a5.6,5.6,0,0,1,2.456.566,5.2,5.2,0,0,1,1.349.913C20.484,45.514,18.29,48,16,48Zm9,12H22V58h3Zm17,0H39V58h3Zm0-4H22V53H42ZM25.618,51l3-6h6.764l3,6Zm14.8-10.124A5.7,5.7,0,0,1,36,43H28.4a5.593,5.593,0,0,1-2.454-.564,5.681,5.681,0,0,1-1.9-1.489c.04-.146.083-.29.121-.437l-.575-.149a10.779,10.779,0,0,1,.379-13.224h0l.008-.011A5.651,5.651,0,0,1,28.4,25H36a5.608,5.608,0,0,1,2.457.566,5.431,5.431,0,0,1,1.962,1.559c.065.081.141.153.211.232A29.56,29.56,0,0,0,40,33.5a29.029,29.029,0,0,0,.813,6.93C40.684,40.566,40.554,40.711,40.418,40.876ZM42,33.5c0-7.583,2.986-14.013,6.6-14.457C45.838,21.827,44,27.2,44,33.5s1.838,11.673,4.6,14.457C44.986,47.513,42,41.083,42,33.5ZM53,48c-3.794,0-7-6.64-7-14.5S49.206,19,53,19s7,6.64,7,14.5S56.794,48,53,48Z"/><path d="M53,39.926A19.047,19.047,0,0,1,52,33.5c0-4.888,1.417-7.56,1.851-8.262l-1.7-1.052C51.5,25.232,50,28.233,50,33.5s1.5,8.268,2.149,9.314a1,1,0,0,0,1.7,0C54.5,41.768,56,38.767,56,33.5H54A19.047,19.047,0,0,1,53,39.926Z"/><rect height="2" width="10" x="27" y="28"/><rect height="2" width="10" x="27" y="33"/><rect height="2" width="10" x="27" y="38"/></g></svg>