<?xml version="1.0" ?><svg id="Layer_1" style="enable-background:new 0 0 91 91;" version="1.1" viewBox="0 0 91 91" xml:space="preserve" xmlns="http://www.w3.org/2000/svg" xmlns:xlink="http://www.w3.org/1999/xlink"><g><path d="M71.7,58.7c-1.2,0-2.1,0.9-2.1,2.1c0,3.3-2.6,5.9-5.9,5.9c-3.3,0-5.9-2.7-5.9-5.9c0-3.3,2.6-5.9,5.9-5.9   c1.2,0,2.1-0.9,2.1-2.1c0-1.2-0.9-2.1-2.1-2.1c-5.6,0-10.1,4.5-10.1,10.1c0,5.6,4.5,10.1,10.1,10.1c5.6,0,10.1-4.5,10.1-10.1   C73.7,59.7,72.8,58.7,71.7,58.7z"/><path d="M89.6,53.5L83,42.1c-0.3-0.5-0.7-0.8-1.3-1c-0.5-0.1-1.1-0.1-1.6,0.2l-5.2,3c-0.8-0.6-1.7-1.1-2.6-1.5v-6   c0-1.2-0.9-2.1-2.1-2.1H62C52.6,18.4,37.8,1.8,37.2,1c-0.4-0.4-1-0.7-1.6-0.7c-0.6,0-1.2,0.3-1.6,0.7C32.7,2.5,1.6,37.7,1.6,55.9   c0,18.7,15.3,34,34,34c4.9,0,9.6-1,14-3c1.9-0.9,3.7-1.9,5.4-3.1v1.1c0,1.2,0.9,2.1,2.1,2.1h13.2c1.2,0,2.1-0.9,2.1-2.1v-6   c0.8-0.4,1.6-0.9,2.4-1.4l5.1,3c0.5,0.3,1.1,0.4,1.6,0.2c0.5-0.1,1-0.5,1.3-1l6.7-11.3c0.3-0.5,0.4-1,0.2-1.6c-0.1-0.5-0.5-1-1-1.3   l-5.1-3c0.1-0.6,0.1-1.2,0.1-1.7c0-0.5,0-1-0.1-1.5l5.2-3C89.8,55.8,90.1,54.5,89.6,53.5z M47.9,83c-3.9,1.7-8,2.6-12.2,2.6   c-16.4,0-29.8-13.4-29.8-29.8c0-14.4,23.5-42.8,29.8-50.2c3.9,4.5,14.1,16.8,21.5,29.1h0c-1.2,0-2.1,0.9-2.1,2.1v6   c-0.8,0.4-1.7,0.9-2.4,1.4l-5.1-3c-1-0.6-2.3-0.3-2.9,0.7l-6.7,11.3c-0.3,0.5-0.4,1-0.2,1.6s0.5,1,1,1.3l5.1,3   c-0.1,0.6-0.1,1.2-0.1,1.7c0,0.5,0,1,0.1,1.5l-5.2,3c-0.5,0.3-0.8,0.7-1,1.3s-0.1,1.1,0.2,1.6l6.6,11.4c0.6,1,1.9,1.3,2.9,0.8   l5.2-3c0.7,0.5,1.5,1,2.3,1.4C52.6,80.5,50.3,81.9,47.9,83z M80.3,56.4c-0.7,0.4-1.2,1.3-1,2.1c0.1,0.8,0.2,1.6,0.2,2.3   c0,0.7-0.1,1.5-0.2,2.5c-0.1,0.8,0.3,1.7,1,2.1l4.5,2.7l-4.6,7.7l-4.5-2.7c-0.7-0.4-1.7-0.4-2.4,0.2c-1.2,0.9-2.5,1.7-3.9,2.2   c-0.8,0.3-1.3,1.1-1.3,1.9v5.2h-9v-5.2c0-0.9-0.5-1.6-1.3-1.9c-1.4-0.6-2.8-1.4-4-2.3c-0.7-0.5-1.6-0.6-2.3-0.2l-4.5,2.6l-4.5-7.8   l4.5-2.6c0.7-0.4,1.2-1.3,1-2.1c-0.1-0.9-0.2-1.6-0.2-2.3c0-0.8,0.1-1.6,0.2-2.5c0.1-0.9-0.3-1.7-1-2.1l-4.5-2.7l4.6-7.7l4.5,2.7   c0.7,0.4,1.7,0.4,2.4-0.2c1.1-0.9,2.5-1.7,3.9-2.2c0.8-0.3,1.3-1.1,1.3-1.9v-5.2h9v5.2c0,0.9,0.5,1.6,1.3,1.9   c1.4,0.6,2.8,1.4,4,2.3c0.7,0.5,1.6,0.6,2.3,0.2l4.5-2.6l4.5,7.8L80.3,56.4z"/><path d="M25.6,70.5c-5.6-4.6-8.4-12.6-6.7-19.7c0.2-0.8,0.4-1.6,0.7-2.5c0.4-1.1-0.2-2.3-1.3-2.7c-1.1-0.4-2.3,0.2-2.7,1.3   c-0.4,1.1-0.7,2-0.9,2.9c-2.1,8.7,1.2,18.3,8.1,23.9c0.4,0.3,0.9,0.5,1.3,0.5c0.6,0,1.2-0.3,1.6-0.8C26.6,72.5,26.4,71.2,25.6,70.5   z"/><path d="M32.6,73.5c-0.1-0.1-0.1-0.3-0.2-0.4c-0.1-0.1-0.2-0.2-0.3-0.3c-0.8-0.8-2.2-0.8-2.9,0c-0.1,0.1-0.2,0.2-0.3,0.3   c-0.1,0.1-0.1,0.2-0.2,0.4c-0.1,0.1-0.1,0.3-0.1,0.4c0,0.1-0.1,0.3-0.1,0.4c0,0.3,0.1,0.6,0.2,0.8c0.1,0.3,0.3,0.5,0.5,0.7   c0.2,0.2,0.4,0.3,0.7,0.5c0.3,0.1,0.5,0.2,0.8,0.2c0.6,0,1.1-0.2,1.5-0.6c0.2-0.2,0.4-0.4,0.5-0.7c0.1-0.3,0.2-0.5,0.2-0.8   c0-0.1,0-0.3,0-0.4C32.7,73.7,32.6,73.6,32.6,73.5z"/></g></svg>