<svg id="svg" version="1.1" xmlns="http://www.w3.org/2000/svg" xmlns:xlink="http://www.w3.org/1999/xlink" width="400" height="225" viewBox="0, 0, 400,225"><g id="svgg"><path id="path0" d="M250.586 67.033 L 240.652 67.087 240.777 67.867 C 240.847 68.295,241.007 69.115,241.135 69.688 L 241.366 70.729 250.809 70.690 C 256.003 70.668,260.301 70.601,260.361 70.541 C 260.537 70.365,260.810 67.198,260.659 67.083 C 260.583 67.026,256.050 67.004,250.586 67.033 M133.000 68.310 C 133.069 68.813,133.125 69.680,133.125 70.237 L 133.125 71.250 141.776 71.250 L 150.427 71.250 150.609 70.771 C 150.709 70.508,150.858 69.666,150.940 68.900 L 151.089 67.509 141.982 67.452 L 132.874 67.396 133.000 68.310 M207.604 172.095 C 185.031 172.296,162.156 172.492,156.771 172.529 C 151.385 172.567,144.504 172.626,141.479 172.660 L 135.979 172.722 136.115 174.938 C 136.189 176.156,136.299 177.202,136.358 177.261 C 136.465 177.367,259.393 176.308,259.486 176.201 C 259.513 176.171,259.601 175.138,259.683 173.906 L 259.832 171.667 254.239 171.698 C 251.163 171.715,230.177 171.893,207.604 172.095 " stroke="none" fill="#444444" fill-rule="evenodd"></path><path id="path1" d="M164.124 50.470 C 147.084 59.665,133.139 67.258,133.134 67.344 C 133.129 67.430,137.168 67.500,142.110 67.500 L 151.095 67.500 150.953 68.802 C 150.874 69.518,150.719 70.432,150.607 70.833 C 150.459 71.369,141.783 131.546,141.146 136.458 C 141.094 136.859,139.924 145.048,138.547 154.655 C 137.169 164.262,136.042 172.264,136.042 172.436 C 136.042 172.712,137.427 172.733,147.865 172.612 C 154.367 172.537,182.179 172.294,209.670 172.072 C 237.160 171.850,259.689 171.630,259.735 171.584 C 259.825 171.494,242.021 73.871,241.154 69.699 C 240.869 68.330,240.664 67.184,240.696 67.151 C 240.729 67.118,245.277 67.086,250.802 67.079 C 256.328 67.073,260.799 66.988,260.738 66.889 C 260.677 66.791,259.291 66.177,257.658 65.525 C 251.958 63.249,246.805 60.667,221.196 47.254 C 207.014 39.827,195.343 33.751,195.258 33.751 C 195.173 33.752,181.163 41.276,164.124 50.470 " stroke="none" fill="#b8b8b8" fill-rule="evenodd"></path></g></svg>