<svg xmlns="http://www.w3.org/2000/svg" fill-rule="evenodd" stroke-linejoin="round" stroke-miterlimit="2" clip-rule="evenodd" viewBox="0 0 64 64"><path d="m 38.999819,41.00011 c 0,-1.656667 -1.343076,-3.000001 -2.999997,-3.000001 -1.656921,0 -2.999997,1.343334 -2.999997,3.000001 v 4.000002 c 0,1.656667 1.343076,3.000002 2.999997,3.000002 1.656921,0 2.999997,-1.343335 2.999997,-3.000002 z m -1.999998,0 c 0,-0.552 -0.447692,-1 -0.999999,-1 -0.552307,0 -0.999999,0.448 -0.999999,1 v 4.000002 c 0,0.552 0.447692,1.000001 0.999999,1.000001 0.552307,0 0.999999,-0.448001 0.999999,-1.000001 z"/><path d="m 17.42268,24.99968 c -0.277,-1.29 -0.423,-2.628 -0.423,-4 0,-0.552 0.448,-1 1,-1 h 1.029 c 0.519,-8.918 7.924,-16 16.971,-16 9.047,0 16.452,7.082 16.971,16 h 1.029 c 0.552,0 1,0.448 1,1 0,8.015 -4.974,14.878 -12,17.667 v 16.333 c 0,1.326 -0.527,2.598 -1.464,3.536 -0.938,0.937 -2.21,1.464 -3.536,1.464 -0.552,0 -1,-0.448 -1,-1 0,-0.552 0.448,-1 1,-1 0.796,0 1.559,-0.316 2.121,-0.879 0.563,-0.562 0.879,-1.325 0.879,-2.121 v -21.171 h -10 v 21.171 c 0,0.796 0.316,1.559 0.879,2.121 0.562,0.563 1.325,0.879 2.121,0.879 0.552,0 1,0.448 1,1 0,0.552 -0.448,1 -1,1 -1.326,0 -2.598,-0.527 -3.536,-1.464 -0.937,-0.938 -1.464,-2.21 -1.464,-3.536 v -16.333 c -3.038,-1.206 -5.693,-3.174 -7.727,-5.667 h -9.273 c -1.657,0 -3,-1.343 -3,-3 v -2 c 0,-1.657 1.343,-3 3,-3 z m 24.577,-1 c 1.165,0.412 2,1.523 2,2.829 v 4 c 0,0.889 -0.386,1.687 -1,2.236 v 3.429 c 5.608,-2.54 9.595,-8.035 9.971,-14.494 h -10.971 z m -18.037,9 c 1.445,1.449 3.149,2.639 5.037,3.494 v -3.429 c -0.024,-0.021 -0.048,-0.043 -0.071,-0.065 z m 18.037,-6.171 c 0,-0.552 -0.448,-1 -1,-1 h -10 c -0.552,0 -1,0.448 -1,1 v 4 c 0,0.553 0.448,1 1,1 h 10 c 0.552,0 1,-0.447 1,-1 z m -14,0.171 h -16 c -0.552,0 -1,0.448 -1,1 v 2 c 0,0.552 0.448,1 1,1 h 16.005 c -0.003,-0.056 -0.005,-0.113 -0.005,-0.171 z m 0.622,-2 c 0.35,-0.454 0.827,-0.805 1.378,-1 v -2 h -10.971 c 0.06,1.027 0.211,2.03 0.445,3 z m 11.378,-1.171 v -2.829 c 0,-0.796 -0.316,-1.559 -0.879,-2.121 -0.562,-0.563 -1.325,-0.879 -2.121,-0.879 h -2 c -0.796,0 -1.559,0.316 -2.121,0.879 -0.563,0.562 -0.879,1.325 -0.879,2.121 v 3 z m 10.967,-3.829 c -0.515,-7.813 -7.024,-14 -14.967,-14 -7.943,0 -14.452,6.187 -14.967,14 h 9.068 c 0.195,-0.953 0.665,-1.837 1.363,-2.536 0.938,-0.937 2.21,-1.464 3.536,-1.464 h 2 c 1.326,0 2.598,0.527 3.536,1.464 0.698,0.699 1.168,1.583 1.363,2.536 z"/><path d="M-35.99968 9.9996796c-.552285 0-1-.4477153-1-1 0-.5522847.447715-1 1-1 .552285 0 1 .4477153 1 1 0 .5522847-.447715 1-1 1zM-41.99968 11.99968c-.552285 0-1-.447715-1-1 0-.552285.447715-1.0000004 1-1.0000004.552285 0 1 .4477154 1 1.0000004 0 .552285-.447715 1-1 1zM-29.99968 11.99968c-.552285 0-1-.447715-1-1 0-.552285.447715-1.0000004 1-1.0000004.552285 0 1 .4477154 1 1.0000004 0 .552285-.447715 1-1 1zM-45.99968 15.99968c-.552285 0-1-.447715-1-1 0-.552285.447715-1 1-1 .552285 0 1 .447715 1 1 0 .552285-.447715 1-1 1zM-25.99968 15.99968c-.552285 0-1-.447715-1-1 0-.552285.447715-1 1-1 .552285 0 1 .447715 1 1 0 .552285-.447715 1-1 1z" transform="scale(-1 1)"/></svg>