<?xml version="1.0" ?><svg id="_x33_0" style="enable-background:new 0 0 64 64;" version="1.1" viewBox="0 0 64 64" xml:space="preserve" xmlns="http://www.w3.org/2000/svg" xmlns:xlink="http://www.w3.org/1999/xlink"><g><path d="M59.131,24.553C61.518,23.359,63,20.96,63,18.292V13c0-3.716-2.911-6.766-6.573-6.987L54.05,3.636   C52.351,1.936,50.09,1,47.687,1h-4.608C39.175,1,36,4.175,36,8.079c0,2.162,0.968,4.176,2.657,5.527l1.701,1.361   C40.007,17.884,40,19.883,40,20v1h2v0.697c0,1.777,0.883,3.426,2.361,4.412C45.236,26.692,46.253,27,47.303,27h0.271   c0.143,0,0.284-0.031,0.426-0.042v3.622l-1.858,0.372c-0.436,0.087-0.836,0.322-1.125,0.66l-1.201,1.401   c-1.245,1.452-2.253,3.069-3.029,4.787L35,43.586v-3.771c0-3.984-1.72-7.773-4.718-10.396C27.764,27.214,24.533,26,21.185,26H21   v-1.034c2.32-0.171,4.337-1.615,5.211-3.802C26.735,19.856,27,18.479,27,17.07V13c0-0.707-0.151-1.377-0.417-1.987   C28.109,9.569,29,7.534,29,5.414c0-1.179-0.459-2.288-1.293-3.121C26.874,1.459,25.765,1,24.586,1h-8.05   c-2.547,0-4.946,0.997-6.82,2.871C8.015,5.571,7,8.236,7,11c0,3.581,2.104,5.735,3.025,6.508c0.117,1.365,0.702,2.634,1.682,3.614   L12,21.414v4.598c-2.26,0.059-4.422,0.775-6.267,2.093C2.769,30.222,1,33.659,1,37.301V46c0,3.409,1.559,6.46,4,8.479V63h24v-6   h2.687c2.404,0,4.664-0.936,6.364-2.636l0.95-0.95V63h24V37.854c0-1.368-0.323-2.737-0.935-3.959   c-0.852-1.702-2.258-3.108-3.96-3.96L57,29.382v-3.764L59.131,24.553z M39.906,12.044C38.695,11.075,38,9.629,38,8.079   C38,5.278,40.278,3,43.079,3h4.608c1.87,0,3.627,0.728,4.95,2.05L55.586,8H56c2.757,0,5,2.243,5,5v5.292   c0,1.906-1.059,3.62-2.764,4.472l-1.996,0.998c-0.487-0.621-0.837-1.32-1.017-2.057c-0.098-0.401-0.165-0.797-0.198-1.17   C55.779,19.99,57,18.828,57,17c0-2.206-1.794-4-4-4h-0.136c-0.197-0.693-0.606-1.316-1.224-1.861C50.533,10.164,48.655,9,46,9   c-2.21,0-4.357,1.061-4.447,1.105l-0.438,0.219l-0.096,0.479c-0.128,0.64-0.239,1.262-0.337,1.862L39.906,12.044z M48.382,34   h-1.386l0.003-1.18l2.193-0.438L48.382,34z M47.285,45.454l-1.254-2.257L46.888,36h1.31l1.429,6.43   C48.951,43.512,48.17,44.525,47.285,45.454z M51.057,39.649l-1.004-4.519l1.623-3.245l1.852-0.37l-1.73,6.054   C51.594,38.282,51.338,38.972,51.057,39.649z M50,26.62l3.196-0.639l-0.393-1.961l-4.582,0.917C48.009,24.979,47.792,25,47.574,25   h-0.271c-0.654,0-1.288-0.192-1.832-0.555C44.55,23.832,44,22.804,44,21.697V19h-1.971c0.062-1.398,0.253-4.125,0.853-7.297   C43.524,11.44,44.781,11,46,11c2.031,0,3.469,0.892,4.318,1.64C50.79,13.056,51,13.475,51,14v1h2c1.103,0,2,0.897,2,2   c0,1.342-1.438,2.101-1.447,2.105L53,19.382V20c0,0.683,0.094,1.416,0.28,2.178c0.288,1.18,0.879,2.285,1.72,3.22v3.782l-5,1V26.62   z M45,34.741v0.2l-0.628,5.271l-1.351-2.432C43.574,36.707,44.235,35.69,45,34.741z M33,39.815v5.771l-0.535,0.535   C31.906,46.68,31.132,47,30.342,47H29v-6h-2v6h-0.994c-0.002,0-0.003,0-0.005,0C26,47,26,47,26,47l-7,0v-2.802l6.356-15.437   c1.312,0.495,2.536,1.223,3.609,2.162C31.529,33.167,33,36.408,33,39.815z M29,52.108c0.001,0.769-0.299,1.495-0.847,2.043   c-0.544,0.545-1.263,0.845-2.026,0.849H25v0.001l-2,0V49l2,0v0h1.006C27.654,49.003,28.997,50.354,29,52.108z M19.382,28l-1,2   h-1.764l-1-2H19.382z M20.664,34.902l-0.624-3.746l1.569-3.137c0.61,0.022,1.215,0.084,1.808,0.198L20.664,34.902z M13.382,28   l1.578,3.156l-0.497,2.98l-2.862-6.082c0.234-0.018,0.464-0.054,0.7-0.054H13.382z M16.847,32h1.305l1.068,6.408l-1.282,3.114   l-1.978-4.204L16.847,32z M25,17.07c0,1.153-0.217,2.281-0.646,3.351c-0.626,1.567-2.122,2.58-3.81,2.58   c-0.813,0-1.6-0.238-2.276-0.689l-1.714-1.143l-1.109,1.664l1.714,1.143c0.568,0.378,1.191,0.644,1.84,0.814V26h-5v-5.414   l-0.879-0.879C12.398,18.984,12,18.022,12,17c0-0.551,0.449-1,1-1h1v-3c0-1.654,1.346-3,3-3h5c1.654,0,3,1.346,3,3V17.07z    M10.572,15.242C9.852,14.401,9,12.989,9,11c0-2.245,0.796-4.382,2.194-5.78C12.626,3.789,14.523,3,16.536,3h8.05   c0.635,0,1.258,0.258,1.707,0.707S27,4.779,27,5.414c0,1.476-0.589,2.891-1.598,3.944C24.508,8.522,23.317,8,22,8h-5   c-2.757,0-5,2.243-5,5v1.171C11.422,14.376,10.926,14.754,10.572,15.242z M3,46v-8.699c0-2.998,1.456-5.827,3.895-7.569   c0.822-0.587,1.721-1.023,2.667-1.315L17,44.224V47l-6,0v-6H9v6c0,1.103,0.895,2,1.994,2L21,49v6.001L12,55C7.038,55,3,50.963,3,46   z M27,61H7v-5.214C8.502,56.557,10.199,57,12,57l14.111,0.001c0,0,0,0,0.001,0c0.005,0,0.01-0.001,0.015-0.001H27V61z    M36.636,52.95c-1.322,1.322-3.08,2.05-4.95,2.05H30.03c0.622-0.841,0.972-1.855,0.97-2.989c-0.002-1.134-0.395-2.17-1.032-3.011   h0.374c1.317,0,2.606-0.534,3.538-1.465l5.551-5.551C39.156,43.308,39,44.66,39,46.028v4.558L36.636,52.95z M41,46.028   c0-2.037,0.357-4.039,1.019-5.934l3.763,6.773c-0.137,0.116-0.266,0.239-0.407,0.352L45,47.52V61h-4V46.028z M57.211,31.724   c1.318,0.659,2.406,1.748,3.065,3.065C60.75,35.735,61,36.795,61,37.854V61h-6V45h-2v16h-6V48.474   c3.238-2.712,5.557-6.283,6.721-10.355l2.013-7.045l0.126-0.025L57.211,31.724z"/><circle cx="50" cy="56" r="1"/><circle cx="50" cy="52" r="1"/></g></svg>